<?xml version="1.0" encoding="utf-8"?>
<!-- Generator: Adobe Illustrator 23.0.3, SVG Export Plug-In . SVG Version: 6.00 Build 0)  -->
<svg version="1.1" id="Layer_1" xmlns="http://www.w3.org/2000/svg" xmlns:xlink="http://www.w3.org/1999/xlink" x="0px" y="0px"
	 viewBox="0 0 43.1 47.8" style="enable-background:new 0 0 43.1 47.8;" xml:space="preserve">
<g>
	<path d="M42.1,36.7c0.1-0.3,0.1-0.5,0.1-0.8c0-1-0.4-2-1.3-2.9l-0.5-16.5c0,0,0,0,0,0c0-0.8-0.3-1.7-1-2.4l-0.7-5.8l0-0.1l0-0.2
		c0,0,0,0,0,0c-0.2-4.1-7.6-7.2-17.1-7.2C12,0.8,4.6,3.9,4.4,8c0,0,0,0,0,0l0,0.2l0,0.1l-0.7,5.8c-0.6,0.8-0.9,1.6-1,2.4
		c0,0,0,0,0,0L2.2,33c-0.8,0.9-1.3,1.9-1.3,2.9c0,0.3,0,0.5,0.1,0.8c-0.1,0.3-0.1,0.5-0.1,0.8c0,0.1,0,0.2,0,0.3c0,0.1,0,0.3,0,0.4
		c0,5.1,10.9,8.9,20.7,8.9s20.7-3.8,20.7-8.9c0-0.1,0-0.3,0-0.4c0-0.1,0-0.2,0-0.3C42.2,37.3,42.2,37,42.1,36.7z M3.1,32.1l0.4-13.3
		c2.6,3.5,10.6,5.8,18,5.8c7.4,0,15.4-2.4,18-5.8L40,32.1l0,0.6l0,0.6l0,0.4l0,0.6l0,0.1l0,0.2c0,0.1,0,0.2,0,0.3c0,0,0,0.1,0,0.1
		c0,0.2-0.1,0.3-0.1,0.5c-1.3,3.4-9.7,6.6-18.4,6.6c-8.6,0-17.1-3.1-18.4-6.6c-0.1-0.2-0.1-0.3-0.1-0.5C3,35,3,35,3,35
		c0-0.1,0-0.2,0-0.3l0-0.2l0-0.1l0-0.6l0-0.4l0-0.6L3.1,32.1z M5,10.2c0.4,0.6,0.9,1.1,1.6,1.7C6.7,11.9,6.8,12,6.9,12
		c0.1,0.1,0.2,0.2,0.4,0.3c3.1,2,8.3,3.2,14.3,3.2c6.1,0,11.3-1.3,14.4-3.3c0,0,0.1,0,0.1-0.1c0.2-0.1,0.4-0.3,0.5-0.4
		c0.6-0.5,1.2-1,1.5-1.6l0.3,2.8l0.1,0.7l0.1,0.7l0,0c0,0.7-0.4,1.4-1,2c-2.5,2.6-9.2,4.8-16,4.8S8,19.1,5.5,16.5
		c-0.6-0.7-1-1.4-1-2l0,0l0.1-0.7L4.7,13L5,10.2z M3.6,16.5c0-0.3,0.1-0.7,0.2-1c0.1,0.3,0.3,0.7,0.5,1c2.4,3.3,10.1,5.7,17.2,5.7
		s14.9-2.3,17.2-5.7c0.2-0.3,0.4-0.6,0.5-1c0.1,0.3,0.2,0.6,0.2,1c0,0,0,0,0,0c0,3.6-8.9,7.2-17.9,7.2C12.5,23.7,3.6,20.1,3.6,16.5
		C3.6,16.5,3.6,16.5,3.6,16.5z M21.5,45.5c-8.9,0-17.6-3.1-19.4-6.6c3.1,3.5,11.6,6,19.4,6c7.8,0,16.3-2.4,19.4-6
		C39.1,42.4,30.4,45.5,21.5,45.5z M41.3,35.9C41.3,35.9,41.3,35.9,41.3,35.9c0,0.3,0,0.4-0.1,0.6c0,0.1,0,0.2-0.1,0.2
		c0,0.1-0.1,0.2-0.1,0.4c-1.6,3.6-10.5,6.8-19.5,6.8c-9,0-17.9-3.2-19.5-6.8C2,37,2,36.9,1.9,36.7c0-0.1,0-0.2-0.1-0.2
		c0-0.2-0.1-0.4-0.1-0.5c0,0,0,0,0-0.1c0,0,0-0.1,0-0.1c0-0.4,0.1-0.7,0.3-1.1l0,0c0,0.2,0,0.4,0.1,0.6c0,0,0,0,0,0
		c0,0.2,0.1,0.4,0.1,0.5c0,0,0,0,0,0c0.1,0.1,0.1,0.3,0.2,0.4c2,3.9,10.9,6.7,19,6.7c8.1,0,17-2.8,19-6.7c0.1-0.1,0.1-0.3,0.2-0.4
		c0,0,0,0,0,0c0.1-0.2,0.1-0.4,0.1-0.5c0,0,0,0,0,0c0-0.2,0.1-0.4,0.1-0.6c0.2,0.3,0.3,0.7,0.3,1.1C41.3,35.8,41.3,35.8,41.3,35.9z
		 M21.5,1.7c8.7,0,16.1,2.9,16.2,6.4c0,0,0,0.1,0,0.1c0,0,0,0.1,0,0.1c0,0,0,0,0,0.1c-0.1,1.5-1.5,2.8-3.7,3.9
		c-3,1.4-7.5,2.4-12.5,2.4c-4.9,0-9.4-0.9-12.4-2.3c-2.3-1.1-3.8-2.5-3.9-4c0,0,0,0,0-0.1c0,0,0-0.1,0-0.1c0,0,0-0.1,0-0.1
		C5.4,4.6,12.8,1.7,21.5,1.7z"/>
	<path d="M12.3,8.2C12.3,8.3,12.4,8.3,12.3,8.2c0.1,0.1,0.1,0.1,0.1,0.1c0,0,0,0,0,0c0,0,0,0,0,0c1.5,1.5,5.4,2.3,9.1,2.3
		c3.8,0,7.7-0.8,9.2-2.4c0,0,0,0,0.1-0.1c0.1-0.1,0.1-0.1,0.1-0.2c0.2-0.3,0.4-0.7,0.4-1.1c0-2.4-5-3.6-9.7-3.6
		c-4.7,0-9.7,1.3-9.7,3.6c0,0.4,0.1,0.7,0.4,1.1C12.2,8.1,12.3,8.2,12.3,8.2z M21.5,9.7c-3.5,0-6.2-0.6-7.7-1.4c0,0-0.1,0-0.1-0.1
		c-0.1-0.1-0.2-0.1-0.3-0.2c0,0,0,0,0,0c1.4-1,4.6-1.7,8.1-1.7C25,6.3,28.2,7,29.7,8c0,0,0,0-0.1,0c-0.1,0.1-0.2,0.1-0.3,0.2
		c0,0-0.1,0-0.1,0.1C27.8,9.1,25,9.7,21.5,9.7z M21.5,4.3c5.2,0,8.8,1.4,8.8,2.7c0,0.1,0,0.2-0.1,0.3c-1.6-1.2-4.9-1.9-8.7-1.9
		c-3.8,0-7.2,0.8-8.8,2c-0.1-0.1-0.1-0.2-0.1-0.4C12.7,5.7,16.3,4.3,21.5,4.3z"/>
	<path d="M21.5,6.6C19.8,6.6,18,7,18,8.1c0,0,0,0,0,0c0,0.1,0,0.1,0,0.2c0,0,0,0,0,0.1c0.2,0.9,2,1.3,3.6,1.3c1.6,0,3.3-0.4,3.6-1.3
		c0,0,0,0,0-0.1c0-0.1,0-0.1,0-0.2c0,0,0,0,0,0C25.1,7,23.3,6.6,21.5,6.6z M23.9,8.3c-0.4,0.2-1.2,0.4-2.4,0.4c-1.2,0-2-0.2-2.4-0.4
		c0,0-0.1,0-0.1-0.1c-0.1-0.1-0.2-0.1-0.2-0.1c0,0,0,0,0,0c0.2-0.2,1.1-0.6,2.7-0.6c1.6,0,2.5,0.4,2.7,0.6c0,0,0,0,0,0
		c0,0-0.1,0.1-0.2,0.2C24,8.3,23.9,8.3,23.9,8.3z"/>
</g>
</svg>
