<svg xmlns="http://www.w3.org/2000/svg" width="41" height="40" viewBox="0 0 41 40">
    <g fill="#000" fill-rule="nonzero">
        <path d="M36.534 3.5C34.178 1.146 30.862 0 27.317 0 21.374 0 14.41 3.063 8.737 8.73-.375 17.832-2.732 30.27 3.503 36.5c2.357 2.354 5.61 3.48 9.217 3.48 5.943 0 12.908-3.042 18.58-8.71 9.113-9.124 11.469-21.54 5.234-27.77zm-6.423 26.583c-5.15 5.146-11.656 8.23-17.39 8.23-3.296 0-6.09-1.042-8.05-3C2.064 32.708 1.105 28.686 2.001 24c.918-4.917 3.733-9.917 7.925-14.104 5.15-5.146 11.657-8.23 17.391-8.23 3.336 0 6.089 1.042 8.05 3 2.606 2.605 3.565 6.626 2.668 11.313-.938 4.938-3.732 9.938-7.924 14.104z"/>
        <path d="M25.649 10.375a39.95 39.95 0 0 0-2.815 2.188c-.125.104-.23.208-.355.312l-.187.167-.084.083-.02.02h-.022c-.02.022.021-.02-.041.043l-.042.041c-.104.104-.23.209-.334.313-.125.125-.25.27-.375.396a13.05 13.05 0 0 0-1.314 1.687 13.88 13.88 0 0 0-1.021 1.896c-.292.646-.522 1.27-.73 1.875a28.817 28.817 0 0 1-.626 1.666c-.208.521-.438 1-.709 1.459a11.22 11.22 0 0 1-.897 1.312l-.25.313-.125.146-.062.083-.042.042-.021.02s.042-.02.02 0c-.208.23-.416.438-.625.667-.208.23-.396.396-.584.604-.104.105-.187.209-.292.292-.104.104-.208.188-.292.292-.396.395-.792.77-1.188 1.145-.396.375-.772.73-1.147 1.063-.375.354-.73.688-1.084 1-2.857 2.583-4.755 4.292-4.755 4.292-.125.125-.187.312-.104.479.104.208.354.312.563.208 0 0 .146-.062.417-.208.271-.125.667-.334 1.168-.584a36.3 36.3 0 0 0 1.793-.979c.688-.395 1.46-.833 2.273-1.354.417-.25.834-.541 1.272-.812.438-.292.876-.605 1.335-.917.458-.333.938-.667 1.397-1.02.125-.084.23-.188.354-.272.125-.104.25-.187.355-.291.23-.188.5-.396.73-.605.229-.187.458-.395.688-.583.125-.125.25-.25.396-.375.125-.125.25-.25.354-.375.48-.5.939-1.062 1.335-1.666.813-1.209 1.355-2.584 1.793-3.771.209-.605.417-1.167.626-1.688.208-.52.438-1 .688-1.479.25-.458.563-.896.876-1.313l.23-.291c.104-.104.208-.23.312-.334l.042-.041-.021.02.02-.02.084-.084.146-.166c.104-.104.188-.209.292-.313a50.41 50.41 0 0 1 2.377-2.354c.397-.375.772-.729 1.147-1.062.376-.354.73-.688 1.085-1 1.418-1.271 2.606-2.334 3.42-3.084.834-.75 1.313-1.187 1.313-1.187.125-.125.188-.313.104-.48-.104-.208-.354-.312-.563-.208 0 0-.604.271-1.605.792a36.3 36.3 0 0 0-1.794.98c-.688.395-1.46.832-2.273 1.353-.417.25-.834.542-1.272.813-.417.229-.875.541-1.334.854z"/>
    </g>
</svg>
